<svg xmlns="http://www.w3.org/2000/svg" viewBox="0 0 807 808"><defs><style>.a9df72d1-124d-4d63-ad8e-2ec362dbccce{fill:none;stroke:#535557;stroke-linecap:round;stroke-linejoin:round;stroke-width:40px;}</style></defs><title>wrench</title><g id="e562ca4e-7823-4688-9d63-20dce940c566" data-name="icon"><path class="a9df72d1-124d-4d63-ad8e-2ec362dbccce" d="M890.82,287.84,768.33,411.06l-2.08-2.1-5.19,4.91L651.84,366.14,608.7,255.81l2.72-2.58-.39-.39L730.5,132.66A216,216,0,0,0,685.83,128c-116.07,0-210.16,91.92-210.16,205.31a200.64,200.64,0,0,0,23.17,93.8l-349,347.74A71.1,71.1,0,0,0,250.59,875.21L604.42,522.63a213.77,213.77,0,0,0,81.41,16c116.08,0,210.17-91.92,210.17-205.3A201.73,201.73,0,0,0,890.82,287.84Z" transform="translate(-109 -108)"/></g></svg>